<svg width="120" height="40" viewBox="0 0 128 110" fill="none" xmlns="http://www.w3.org/2000/svg">
  <path
    d="M119.297 68.4796L118.794 70.3643C116.11 80.3789 110.909 89.02 104.144 94.7007C97.8051 100.021 90.8887 102.035 84.6613 100.364C78.4383 98.6967 73.451 93.4961 70.6195 85.7173C67.6014 77.4185 67.4147 67.3328 70.0995 57.3182C74.9401 39.2538 87.7594 26.5722 100.037 26.75L90.0886 63.8746C89.4885 66.1149 90.8176 68.4174 93.0579 69.0219C93.4224 69.1197 93.7868 69.1642 94.1469 69.1642C96.0005 69.1642 97.6984 67.9285 98.2007 66.0482L115.901 0H107.202L102.25 18.4779C85.5236 16.9532 68.0681 32.4218 61.9784 55.1446C60.9783 58.8695 60.3649 62.6167 60.0582 66.3149L58.9736 70.3688C56.2888 80.3833 51.0882 89.0244 44.3229 94.7051C37.9843 100.026 31.0679 102.039 24.8405 100.368C18.6175 98.7012 13.6302 93.5005 10.7987 85.7218C7.78058 77.423 7.59389 67.3373 10.2787 57.3227C12.9634 47.3081 18.1641 38.667 24.9294 32.9863C29.8722 28.8391 35.1618 26.7322 40.2068 26.7811L30.2678 63.8746C29.6677 66.1149 30.9968 68.4174 33.2371 69.0219C33.6016 69.1197 33.9661 69.1642 34.3261 69.1642C36.1797 69.1642 37.8777 67.9285 38.3799 66.0482L56.0844 0H47.3855L42.4382 18.4645C34.7217 17.7222 26.7296 20.5048 19.5332 26.5455C11.461 33.3197 5.29138 43.4765 2.16655 55.1402C-0.958287 66.8039 -0.696033 78.6809 2.90886 88.5888C6.70044 99.0168 13.7191 106.08 22.6713 108.48C24.8405 109.062 27.0496 109.347 29.2677 109.347C36.2108 109.347 43.2917 106.538 49.728 101.137C54.5331 97.1054 58.6402 91.8559 61.854 85.824C62.1251 86.7575 62.3963 87.6909 62.7252 88.5932C66.5168 99.0212 73.5354 106.084 82.4877 108.485C84.6568 109.067 86.866 109.351 89.084 109.351C96.0271 109.351 103.108 106.542 109.544 101.141C117.616 94.3673 123.786 84.2105 126.911 72.5468L128 68.4885H119.301L119.297 68.4796Z"
    fill="black" />
  <path
    d="M119.297 68.4796L118.794 70.3643C116.11 80.3789 110.909 89.02 104.144 94.7007C97.8051 100.021 90.8887 102.035 84.6613 100.364C78.4383 98.6967 73.451 93.4961 70.6195 85.7173C67.6014 77.4185 67.4147 67.3328 70.0995 57.3182C74.9401 39.2538 87.7594 26.5722 100.037 26.75L90.0886 63.8746C89.4885 66.1149 90.8176 68.4174 93.0579 69.0219C93.4224 69.1197 93.7868 69.1642 94.1469 69.1642C96.0005 69.1642 97.6984 67.9285 98.2007 66.0482L115.901 0H107.202L102.25 18.4779C85.5236 16.9532 68.0681 32.4218 61.9784 55.1446C60.9783 58.8695 60.3649 62.6167 60.0582 66.3149L58.9736 70.3688C56.2888 80.3833 51.0882 89.0244 44.3229 94.7051C37.9843 100.026 31.0679 102.039 24.8405 100.368C18.6175 98.7012 13.6302 93.5005 10.7987 85.7218C7.78058 77.423 7.59389 67.3373 10.2787 57.3227C12.9634 47.3081 18.1641 38.667 24.9294 32.9863C29.8722 28.8391 35.1618 26.7322 40.2068 26.7811L30.2678 63.8746C29.6677 66.1149 30.9968 68.4174 33.2371 69.0219C33.6016 69.1197 33.9661 69.1642 34.3261 69.1642C36.1797 69.1642 37.8777 67.9285 38.3799 66.0482L56.0844 0H47.3855L42.4382 18.4645C34.7217 17.7222 26.7296 20.5048 19.5332 26.5455C11.461 33.3197 5.29138 43.4765 2.16655 55.1402C-0.958287 66.8039 -0.696033 78.6809 2.90886 88.5888C6.70044 99.0168 13.7191 106.08 22.6713 108.48C24.8405 109.062 27.0496 109.347 29.2677 109.347C36.2108 109.347 43.2917 106.538 49.728 101.137C54.5331 97.1054 58.6402 91.8559 61.854 85.824C62.1251 86.7575 62.3963 87.6909 62.7252 88.5932C66.5168 99.0212 73.5354 106.084 82.4877 108.485C84.6568 109.067 86.866 109.351 89.084 109.351C96.0271 109.351 103.108 106.542 109.544 101.141C117.616 94.3673 123.786 84.2105 126.911 72.5468L128 68.4885H119.301L119.297 68.4796Z"
    fill="black" fill-opacity="0.2" />
</svg>