<svg width="11" height="20" viewBox="0 0 11 20" fill="currentColor" xmlns="http://www.w3.org/2000/svg">
<path d="M0.508382 18.8335C0.202827 18.5279 0.0500488 18.1391 0.0500488 17.6668C0.0500488 17.1946 0.202827 16.8057 0.508382 16.5002L7.00838 10.0002L0.508382 3.50016C0.202827 3.19461 0.0500488 2.80572 0.0500488 2.3335C0.0500488 1.86127 0.202827 1.47238 0.508382 1.16683C0.813938 0.861274 1.20283 0.708496 1.67505 0.708496C2.14727 0.708496 2.53616 0.861274 2.84172 1.16683L10.5084 8.8335C10.675 9.00016 10.7931 9.18072 10.8625 9.37516C10.932 9.56961 10.9667 9.77794 10.9667 10.0002C10.9667 10.2224 10.932 10.4307 10.8625 10.6252C10.7931 10.8196 10.675 11.0002 10.5084 11.1668L2.84172 18.8335C2.53616 19.1391 2.14727 19.2918 1.67505 19.2918C1.20283 19.2918 0.813938 19.1391 0.508382 18.8335Z" fill="currentColor"/>
</svg>
