<svg width="11" height="20" viewBox="0 0 11 20" fill="none" xmlns="http://www.w3.org/2000/svg">
<path d="M8.16663 18.8335L0.499959 11.1668C0.333293 11.0002 0.215237 10.8196 0.145793 10.6252C0.0763482 10.4307 0.041626 10.2224 0.041626 10.0002C0.041626 9.77794 0.0763482 9.56961 0.145793 9.37516C0.215237 9.18072 0.333293 9.00016 0.499959 8.8335L8.16663 1.16683C8.47218 0.861274 8.86107 0.708496 9.33329 0.708496C9.80552 0.708496 10.1944 0.861274 10.5 1.16683C10.8055 1.47239 10.9583 1.86127 10.9583 2.3335C10.9583 2.80572 10.8055 3.19461 10.5 3.50016L3.99996 10.0002L10.5 16.5002C10.8055 16.8057 10.9583 17.1946 10.9583 17.6668C10.9583 18.1391 10.8055 18.5279 10.5 18.8335C10.1944 19.1391 9.80552 19.2918 9.33329 19.2918C8.86107 19.2918 8.47218 19.1391 8.16663 18.8335Z" fill="#545454"/>
</svg>
